<?xml version="1.0" encoding="utf-8"?>
<!-- Generator: Adobe Illustrator 23.0.2, SVG Export Plug-In . SVG Version: 6.00 Build 0)  -->
<svg version="1.1" id="Layer_1" xmlns="http://www.w3.org/2000/svg" xmlns:xlink="http://www.w3.org/1999/xlink" x="0px" y="0px"
	 viewBox="0 0 66.7 38" style="enable-background:new 0 0 66.7 38;" xml:space="preserve">
<g id="Group_2107" transform="translate(-210.402 467.904)">
	<path id="Path_3419" style="fill:none;stroke:#936D33;stroke-miterlimit:10;" d="M259.3-456.5c0-4.8,3.9-8.7,8.7-8.7c0,0,0,0,0,0
		c4.8,0,8.7,3.9,8.7,8.7c0,4.8-3.9,8.7-8.7,8.7c0,0,0,0,0,0h-57.6"/>
	<path id="Path_3420" style="fill:none;stroke:#936D33;stroke-miterlimit:10;" d="M240-461.3c0-3.4,2.7-6.1,6.1-6.1h0
		c3.4,0,6.1,2.7,6.1,6.1l0,0c0,3.4-2.7,6.1-6.1,6.1h0h-25.7"/>
	<path id="Path_3421" style="fill:none;stroke:#936D33;stroke-miterlimit:10;" d="M258.3-435.3c0,2.7,2.2,4.9,4.9,4.9l0,0
		c2.7,0,4.9-2.2,4.9-4.9s-2.2-4.9-4.9-4.9h-47.8"/>
</g>
</svg>
