<svg xmlns="http://www.w3.org/2000/svg" width="95" height="95"><g id="Group_16" data-name="Group 16" transform="translate(-16.836 -.385)"><path id="Path_60928" data-name="Path 60928" d="M0 0h95v95H0z" transform="rotate(-180 55.918 47.693)" fill="#936d33"/><g id="MCDS_ID_stacked_Wht" transform="translate(26.833 21.115)" fill="#fff"><g id="Group_1023" data-name="Group 1023" transform="translate(.156 50.613)"><path id="Path_1115" data-name="Path 1115" d="M.6 196.9a1.931 1.931 0 011.924-1.9 2.293 2.293 0 011.2.364l-.182.312a1.837 1.837 0 00-.988-.312 1.548 1.548 0 00-1.512 1.536 1.531 1.531 0 001.508 1.534 1.881 1.881 0 001.066-.364l.208.286a2.162 2.162 0 01-1.274.442A1.92 1.92 0 01.6 196.9z" transform="translate(-.6 -194.922)"/><path id="Path_1116" data-name="Path 1116" d="M28.568 198.521H28.1l1.742-3.821 1.742 3.821h-.468l-.494-1.092H29.01zm.624-1.456h1.326l-.65-1.456z" transform="translate(-20.951 -194.7)"/><path id="Path_1117" data-name="Path 1117" d="M57.1 198.817V195.1h.936c.65 0 1.144.338 1.144.988a.945.945 0 01-.442.754 1.026 1.026 0 01.754.91c0 .7-.52 1.04-1.222 1.04H57.1zm.442-2.08h.416c.468 0 .806-.234.806-.65 0-.364-.234-.624-.7-.624h-.52zm0 1.716h.728c.442 0 .806-.208.806-.676a.756.756 0 00-.806-.676h-.728z" transform="translate(-42.413 -194.996)"/><path id="Path_1118" data-name="Path 1118" d="M81.4 196.8a1.914 1.914 0 011.924-1.9 1.892 1.892 0 011.9 1.9 1.911 1.911 0 11-3.821 0zm.416 0a1.47 1.47 0 101.482-1.534 1.544 1.544 0 00-1.482 1.534z" transform="translate(-60.396 -194.848)"/><path id="Path_1119" data-name="Path 1119" d="M130.9 198.817V195.1h1.144a1.859 1.859 0 110 3.717zm1.118-.364a1.465 1.465 0 001.456-1.508 1.443 1.443 0 00-1.456-1.482h-.728v2.989z" transform="translate(-97.028 -194.996)"/><path id="Path_1120" data-name="Path 1120" d="M160.85 197.228h-1.534v1.326h1.768v.364H158.9V195.2h2.132v.364h-1.716v1.3h1.534z" transform="translate(-117.75 -195.07)"/><path id="Path_1121" data-name="Path 1121" d="M183.8 198.817V195.1h.416v3.353h1.768v.364z" transform="translate(-136.177 -194.996)"/><path id="Path_1122" data-name="Path 1122" d="M225.9 198.331l.208-.286a1.55 1.55 0 00.936.312c.52 0 .754-.26.754-.676 0-.936-1.82-.572-1.82-1.768a.976.976 0 011.066-1.014 1.76 1.76 0 011.118.416l-.208.286a1.48 1.48 0 00-.91-.312.626.626 0 00-.65.65c0 .312.416.52.728.624.52.182 1.092.468 1.092 1.144 0 .754-.52 1.04-1.17 1.04a2.061 2.061 0 01-1.144-.416z" transform="translate(-167.333 -194.848)"/><path id="Path_1123" data-name="Path 1123" d="M250.4 196.8a1.914 1.914 0 011.924-1.9 1.892 1.892 0 011.9 1.9 1.911 1.911 0 11-3.821 0zm.442 0a1.47 1.47 0 101.482-1.534 1.526 1.526 0 00-1.482 1.534z" transform="translate(-185.464 -194.848)"/><path id="Path_1124" data-name="Path 1124" d="M281.4 198.817V195.1h.416v3.353h1.768v.364z" transform="translate(-208.406 -194.996)"/></g><g id="Group_1028" data-name="Group 1028"><g id="Group_1026" data-name="Group 1026" transform="translate(1.222)"><g id="Group_1024" data-name="Group 1024" transform="translate(0 .208)"><path id="Path_1125" data-name="Path 1125" d="M18.633 4.335l-6.265 6.889-6.316-6.889v14.428H4.7V.8l7.669 8.5L19.985.8v17.963h-1.352z" transform="translate(-4.7 -.8)"/><path id="Path_1126" data-name="Path 1126" d="M84.308 18.763H82.8L90.859.8l8.033 17.963h-1.509l-2.418-5.615h-8.214zm2.963-6.811h7.123l-3.535-8.137z" transform="translate(-62.498 -.8)"/><path id="Path_1127" data-name="Path 1127" d="M165.352 20.243H164V2.8h5.2c3.093 0 5.719 1.716 5.719 4.965 0 2.6-2.054 4.133-4.5 4.549l5.8 7.929h-1.639l-5.719-7.851h-3.535v7.851zm0-9.02h3.873c2.21 0 4.315-1.274 4.315-3.431 0-2.522-2.106-3.769-4.367-3.769h-3.821z" transform="translate(-122.59 -2.28)"/></g><g id="Group_1025" data-name="Group 1025" transform="translate(57.709)"><path id="Path_1128" data-name="Path 1128" d="M242.271 62.04c-.1 0-.208.026-.338.026a3.729 3.729 0 01-2.158-.624 2.534 2.534 0 00-2.859 0 3.729 3.729 0 01-2.158.624h-.026a3.729 3.729 0 01-2.158-.624 2.534 2.534 0 00-2.859 0 3.729 3.729 0 01-2.158.624c-.13 0-.208-.026-.338-.026l-.52 1.2a4.076 4.076 0 00.858.1 3.729 3.729 0 002.158-.624 2.534 2.534 0 012.859 0 3.729 3.729 0 002.158.624h.026a3.729 3.729 0 002.158-.624 2.534 2.534 0 012.859 0 3.729 3.729 0 002.158.624 2.874 2.874 0 00.858-.1z" transform="translate(-226.7 -45.143)"/><path id="Path_1129" data-name="Path 1129" d="M244.694 50.636a4.1 4.1 0 01-1.118-.494 2.534 2.534 0 00-2.859 0 3.729 3.729 0 01-2.158.624h-.026a3.729 3.729 0 01-2.158-.624 2.534 2.534 0 00-2.859 0 4.1 4.1 0 01-1.118.494l-.6 1.352a3.851 3.851 0 001.716-.6 2.534 2.534 0 012.859 0 3.729 3.729 0 002.158.624h.026a3.729 3.729 0 002.158-.624 2.534 2.534 0 012.859 0 3.978 3.978 0 001.716.6z" transform="translate(-230.474 -36.78)"/><path id="Path_1130" data-name="Path 1130" d="M243.073.078V0l-.026.026v.052L237.9 11.672a3.474 3.474 0 011.56-.338h.026l3.561-7.773 3.561 7.773h.026a3.473 3.473 0 011.56.338z" transform="translate(-234.989)"/></g></g><g id="Group_1027" data-name="Group 1027" transform="translate(0 23.656)"><path id="Path_1131" data-name="Path 1131" d="M0 99.968A9.076 9.076 0 019.072 91a9.985 9.985 0 015.381 1.638l-.65 1.014a8.736 8.736 0 00-4.705-1.4 7.695 7.695 0 100 15.389 9.032 9.032 0 005.121-1.768l.676 1.014a9.956 9.956 0 01-5.8 2A9.038 9.038 0 010 99.968z" transform="translate(0 -91)"/><path id="Path_1132" data-name="Path 1132" d="M81.252 91.9v17.443H79.9V91.9z" transform="translate(-59.13 -91.666)"/><path id="Path_1133" data-name="Path 1133" d="M118.238 101.206h-7.461v6.941h8.578v1.2H109.4V91.9h9.722v1.2h-8.37v6.915h7.461v1.2z" transform="translate(-80.961 -91.666)"/><path id="Path_1134" data-name="Path 1134" d="M170.9 109.343V91.9h1.352v16.247h8.578v1.2z" transform="translate(-126.474 -91.666)"/><path id="Path_1135" data-name="Path 1135" d="M219.8 100.016a8.942 8.942 0 118.968 8.968 8.959 8.959 0 01-8.968-8.968zm1.378 0a7.579 7.579 0 1015.155 0 7.578 7.578 0 10-15.155 0z" transform="translate(-162.663 -91.074)"/></g></g></g></g></svg>