<svg version="1.1" id="Layer_1" xmlns="http://www.w3.org/2000/svg" x="0" y="0" viewBox="0 0 136.8 28.2" xml:space="preserve"><style type="text/css">.st0{fill:#fff}</style><g id="Group_3549"><g id="Group_3544"><path id="Path_63590" class="st0" d="M8 4.9H2.2v2.3h5.3v1.9H2.2V12h6v1.9H0V3h8v1.9"/><path id="Path_63591" class="st0" d="M16.5 3h2.1v10.9h-2.3l-4.4-7.8v7.8H9.8V3h2.4l4.3 7.6V3"/><path id="Path_63592" class="st0" d="M25.7 8h4.5v5.9h-1.5l-.2-1.4c-.8 1.1-2.1 1.7-3.4 1.7-2.6 0-5-1.9-5-5.7 0-3 1.6-5.8 5.3-5.8 3.3 0 4.7 2.2 4.8 3.7H28c-.3-1.1-1.3-1.8-2.4-1.8-1.6 0-3.1 1.1-3.1 3.9 0 3 1.6 3.8 3.2 3.8 1.4 0 2.5-1 2.6-2.4h-2.6V8"/><path id="Path_63593" class="st0" d="M40.2 4.9h-5.8v2.3h5.3v1.9h-5.3V12h6v1.9h-8.3V3h8l.1 1.9"/><path id="Path_63594" class="st0" d="M44.4 11.9h5.4v2h-7.7V3h2.3v8.9"/><path id="Path_63595" d="M57.4 11.6c-.5.4-1 .7-1.7.8-.8.1-1.5-.6-1.6-1.4 0-.9.4-1.2 1.3-1.8l2 2.4m2.5 0c.8-.9 1.2-2.1 1.2-3.3h-1.9c0 .6-.2 1.2-.6 1.7l-1.5-1.9c1-.5 1.7-1.5 1.8-2.6 0-1.4-1.2-2.5-2.5-2.5h-.1c-1.4-.2-2.7.9-2.9 2.3v.2c.1.9.4 1.7 1 2.3l-.2.1C52.3 9 52 10 52 11.1c0 1.8 1.5 3.1 3.3 3.1h.1c1.2.1 2.3-.4 3.1-1.2l.8.9h2.6l-2-2.3zm-2.8-6c0 .6-.4 1-1 1.3-.4-.4-.7-.8-.8-1.4.1-.5.5-.9 1-.8.4.1.7.4.8.9z" fill="#e20613"/><path id="Path_63596" class="st0" d="M69.7 3h2.4l-3.7 10.9h-2.2L62.5 3H65l2.3 8.3L69.7 3"/><path id="Path_63597" class="st0" d="M78.3 1.8h1.9V0h-1.9v1.8zm-3 0h1.9V0h-1.9v1.8zm-2.8 6.6c0 5.1 3.8 5.7 5.2 5.7s5.3-.5 5.3-5.7-3.8-5.7-5.2-5.7-5.3.6-5.3 5.7zm2.3 0c0-3.1 1.7-3.8 3-3.8s3 .8 3 3.8-1.7 3.8-3 3.8-3-.7-3-3.8z"/><path id="Path_63598" class="st0" d="M86.9 11.9h5.4v2h-7.7V3h2.3v8.9"/><path id="Path_63599" class="st0" d="M96.2 13.9h-2.3V3h2.3v4.4l4.2-4.4h2.9l-4.5 4.5 4.7 6.4h-2.9l-3.4-4.8-1.1 1.1.1 3.7"/><path id="Path_63600" class="st0" d="M112.6 4.9h-5.8v2.3h5.3v1.9h-5.3V12h6v1.9h-8.3V3h8l.1 1.9"/><path id="Path_63601" class="st0" d="M114.6 13.9h2.2V9.6h2.3c1.7 0 1.8.6 1.8 2.1 0 .7.1 1.5.2 2.2h2.5v-.3c-.5-.2-.5-.6-.5-2.2 0-2-.5-2.4-1.4-2.8 1.1-.4 1.8-1.5 1.7-2.6 0-1.7-1.3-3.1-3-3.1h-5.9l.1 11m2.3-6.1V4.9h2.8c1.3 0 1.6.8 1.6 1.4 0 1.1-.6 1.5-1.8 1.5h-2.6z"/><path id="Path_63602" class="st0" d="M127.1 10.6c0 .6.3 1.8 2.3 1.8 1.1 0 2.3-.3 2.3-1.4 0-.9-.8-1.1-2-1.4l-1.2-.3c-1.8-.4-3.5-.8-3.5-3.2 0-1.2.7-3.4 4.2-3.4 3.3 0 4.2 2.2 4.2 3.5h-2.2c-.1-.5-.2-1.6-2.2-1.6-.9 0-1.9.3-1.9 1.3s.7 1 1.2 1.1l2.6.7c1.5.4 2.9 1 2.9 2.9 0 3.3-3.3 3.6-4.3 3.6-4 0-4.7-2.3-4.7-3.6h2.3"/><path id="Path_63603" class="st0" d="M134.8 3h.2v-.8h.7c.1 0 .1.1.1.2v.5h.3l-.1-.1v-.3c0-.1 0-.2-.1-.2l-.1-.1c.1 0 .1-.1.2-.2 0-.1.1-.2.1-.3 0-.2-.1-.3-.2-.4-.1 0-.2-.1-.3-.1h-.8V3m.2-.9v-.6h.8c.1 0 .1.1.1.2s0 .2-.1.2-.2.1-.3.1l-.5.1z"/></g><g id="Group_3546"><g id="Group_3545"><path id="Path_63604" class="st0" d="M135.3 3.5c-.3 0-.7-.1-.9-.4-.3-.3-.4-.6-.4-1 0-.8.6-1.4 1.4-1.4s1.4.6 1.4 1.4c0 .7-.7 1.4-1.5 1.4zm-1.2-1.4c0 .3.2.7.4.9.2.2.6.4.9.3.7 0 1.2-.6 1.2-1.2 0-.7-.6-1.3-1.3-1.3-.7 0-1.3.6-1.2 1.3z"/></g></g><g id="Group_3548"><g id="Group_3547"><path id="Path_63605" class="st0" d="M22 25.6c0 .8-.4 1.6-1.2 1.9-.8.4-1.7.6-2.6.6-.4 0-.8 0-1.2-.1l-1-.1c-.2 0-.4-.1-.6-.1H15l-.3-1.5.9.3c.4.1.9.2 1.3.3.5.1 1 .2 1.5.2.6 0 1.1-.1 1.6-.4.4-.2.7-.7.7-1.1 0-.3-.1-.6-.3-.8-.4-.3-.9-.4-1.5-.4l-1.4-.2c-.4 0-.9-.1-1.3-.2s-.8-.3-1.1-.6c-.3-.3-.5-.8-.4-1.2 0-.8.5-1.5 1.2-1.8.8-.3 1.7-.5 2.6-.5.5 0 1.1 0 1.6.1.3 0 .7.1 1.2.2h.4l-.4 1.2c-.3-.2-.6-.3-1-.4-.6-.1-1.2-.2-1.8-.2-.7-.1-1.4.1-2 .4-.3.2-.5.5-.6.9v.1c0 .2.2.5.5.6.3.2.7.2 1 .3l2.2.3c.4 0 .8.1 1.1.3.3.1.6.4.9.6.3.4.4.8.4 1.3z"/><path id="Path_63606" class="st0" d="M29.9 28H28l.2-.2c.1-.1.1-.2.1-.3 0-.1.1-.2.1-.3v-2.6c0-.4-.2-.9-.6-1.1-.3-.2-.8-.4-1.2-.4h-.2c-.5 0-1 .2-1.5.5-.5.2-.7.7-.7 1.2v2.4l.3.6.2.2h-2.1l.2-.2c.1-.1.1-.2.2-.3.1-.1.1-.2.1-.4 0-.1.1-.3.1-.4v-3.4c0-.1-.1-.2-.2-.4 0-.1-.1-.2-.1-.2l-.2-.2h1.4l.1-.1v.7c.4-.3.8-.5 1.2-.7.4-.2.9-.2 1.4-.2.7 0 1.3.1 1.9.5.6.4.9 1 .9 1.8v2.8c0 .1.1.3.1.4 0 .1.1.2.2.3z"/><path id="Path_63607" class="st0" d="M37.4 25.9l-.1-.1h-5.7c.1.5.4 1 .8 1.2.5.3 1.1.4 1.7.4.5 0 1-.1 1.5-.2s1-.3 1.4-.6V28h-.4c-.3 0-.7.1-1 .1-.5.1-1 .2-1.5.2-.9 0-1.8-.2-2.5-.6-.8-.5-1.2-1.3-1.2-2.2 0-.8.3-1.6.8-2.2.7-.6 1.7-.9 2.6-.9 1-.1 2 .3 2.7 1 .5.6.8 1.4.8 2.1.2.1.1.3.1.4zm-1.1-1c0-.5-.3-1-.7-1.3-1-.6-2.2-.6-3.1 0-.5.3-.8.8-.8 1.3h4.6z"/><path id="Path_63608" class="st0" d="M40.2 28H38l.4-.4c.1-.1.1-.2.2-.4v-6.1c0-.1 0-.3-.1-.4 0-.1-.1-.2-.1-.3 0-.1-.1-.2-.2-.2L38 20h1.8c0 .1-.1.1-.1.2v6.6c0 .3.1.5.2.8 0 .1.1.2.2.3 0-.1.1 0 .1.1z"/><path id="Path_63609" class="st0" d="M43.1 28h-2.2l.4-.4c.1-.1.1-.2.2-.4v-6.5c0-.1-.1-.2-.1-.3 0-.1-.1-.2-.2-.2l-.3-.2h1.8c0 .1-.1.1-.1.2v6.6c0 .3 0 .5.2.8 0 .1.1.2.1.3.1-.1.1 0 .2.1z"/><path id="Path_63610" class="st0" d="M56.2 28H54c0-.1.1-.1.2-.2 0-.1.1-.1 0-.2 0-.6-.3-1.1-.6-1.5-.4-.6-.9-1-1.6-1.3-.4-.2-.9-.3-1.4-.3h-1.8v2.3c0 .2.1.5.2.7.1.2.2.4.4.5H47l.2-.2.2-.2c.1-.1.2-.3.2-.4 0-.2.1-.3 0-.5v-5.6c0-.1-.1-.3-.2-.4-.1-.1-.1-.2-.2-.3l-.3-.3h5.6c.7 0 1.5.1 2.1.5.6.3.9.9.9 1.6 0 .6-.2 1.1-.7 1.5-.5.4-1.1.7-1.8.7.3.1.6.3.9.6.3.3.6.7.9 1.1.2.4.5.8.7 1.2.1.1.2.3.3.4l.4.3zm-1.8-5.8c0-.4-.2-.7-.5-.9-.3-.2-.7-.3-1.1-.3h-4v2.6h2.7c.4 0 .8 0 1.2-.1.4-.1.8-.2 1.1-.4.4-.2.6-.5.6-.9z"/><path id="Path_63611" class="st0" d="M63.8 25.9c0-.1-.1-.1-.1-.1H58c.1.5.3 1 .8 1.2.5.3 1.1.4 1.7.4.5 0 1-.1 1.5-.2s1-.3 1.4-.5V28H62c-.5.1-1 .2-1.5.2-.9.1-1.8-.1-2.5-.6-.8-.5-1.2-1.3-1.2-2.2 0-.8.3-1.6.8-2.2.7-.6 1.7-.9 2.6-.9 1-.1 2 .3 2.7 1 .5.6.8 1.4.8 2.1.1.2.1.3.1.5zm-1.2-1c0-.5-.3-1-.7-1.3-1-.6-2.2-.6-3.2 0-.5.3-.8.8-.8 1.3h4.7z"/><path id="Path_63612" class="st0" d="M71.5 28h-1.1c-.1 0-.2-.1-.2-.1-.1-.1-.2-.2-.2-.3l-.4.3c-.3.2-.6.3-1 .4-.3 0-.7.1-1 .1H67c-.6 0-1.2-.1-1.8-.4-.7-.4-1-1.3-.6-2.1.1-.3.4-.5.6-.6.5-.3 1.2-.5 1.8-.6.7-.1 1.4-.1 2.1-.1h.6v-.3c0-.4-.2-.7-.5-.9-.4-.2-.8-.3-1.2-.2-1.1 0-2.2.2-3.2.7l.5-1.5c.2.1.3.1.5.1.5 0 1-.1 1.5-.2.3-.1.6-.1.9-.1.7 0 1.3.1 1.9.5.5.4.7 1 .7 1.6V27c0 .2.1.3.2.4.1.1.1.2.2.3.1.2.2.2.3.3zm-1.7-2v-.7H69c-.5 0-1 0-1.5.1-.5 0-.9.1-1.3.3-.4.2-.6.4-.6.7 0 .4.3.7.6.8.4.2.8.2 1.3.2.6 0 1.1-.1 1.6-.3.3-.2.6-.6.7-1.1z"/><path id="Path_63613" class="st0" d="M74.3 28h-2.2l.4-.4c.1-.1.1-.2.2-.4v-6.5c0-.1-.1-.2-.1-.3 0-.1-.1-.2-.2-.2l-.3-.2H74c0 .1-.1.1-.1.2v6.6c0 .3.1.5.2.8 0 .1.1.2.2.3-.1-.1 0 0 0 .1z"/><path id="Path_63614" class="st0" d="M86.9 26.5c-.1.2-.2.4-.3.7-.1.2-.1.3-.1.5 0 .1.1.1.1.2l.2.1h-8.6c.1-.1.2-.1.3-.2.1-.1.1-.1.1-.2l.1-.2c.1-.1.1-.2.1-.4v-5.7c0-.1 0-.2-.1-.4 0-.1-.1-.2-.2-.4-.1-.1-.1-.2-.2-.3l-.1-.2h8.3c0 .1-.1.1-.1.2v.2c0 .1.1.2.1.3.1.2.2.5.2.7-.2-.1-.5-.1-.7-.2l-.7-.1c-.3 0-.6-.1-.8-.1H80v2.3h4.5l.4-.1.4-.1-.5.9-.1.1H80V27h4.3c.3 0 .6 0 .9-.1l.6-.1.5-.1.6-.2z"/><path id="Path_63615" class="st0" d="M93.9 26.2c0 .6-.4 1.2-.9 1.5-.6.3-1.4.5-2.1.5-.5 0-1-.1-1.5-.1-.3 0-.5-.1-.8-.1h-.5l-.5-1.5c.2.1.6.2 1.2.4.3.1.7.2 1 .3.4.1.8.1 1.1.1.5 0 1-.1 1.5-.3.3-.1.4-.4.4-.7 0-.3-.2-.5-.4-.6-.3-.1-.6-.2-.9-.1h-1.7c-.5 0-.9-.1-1.4-.3-.4-.2-.6-.6-.7-1 0-.7.4-1.2 1-1.5.7-.3 1.4-.4 2.1-.4.4 0 .8 0 1.2.1l1.2.2h.4l-.4 1.1c-.3-.2-.7-.3-1.1-.4-.5-.1-.9-.1-1.4-.1-.4 0-.8 0-1.2.1-.4.1-.7.4-.7.8v.1c0 .2.2.4.5.5.3.1.6.1.9.1l1.9.1c.4 0 .9.1 1.2.3.4.1.6.5.6.9z"/><path id="Path_63616" class="st0" d="M100.3 22.3l-.5 1.4c-.1-.1-.1-.1-.2-.1s-.2-.1-.3 0h-2.1v2.2c0 .4.1.8.3 1.1.3.3.7.5 1.2.5.3 0 .6-.1.9-.2l.5-.2v1h-.2c-.3 0-.6.1-.9.1h-.6c-.7.1-1.3-.2-1.8-.7-.4-.5-.5-1.1-.5-1.7v-2.2h-1.2l-.2.1-.1.1-.1.1.4-1.3c.1.2.4.2.6.2.2 0 .4 0 .5-.1.2-.2.3-.4.2-.6v-1.2c0-.1 0-.2-.1-.2l-.1-.1h1.3l-.1.1v2.1h2.2c.1 0 .3 0 .4-.1.3-.1.4-.2.5-.3z"/><path id="Path_63617" class="st0" d="M108 28h-1c-.1 0-.2-.1-.2-.1-.1-.1-.2-.2-.2-.3l-.4.3c-.3.2-.6.3-1 .4-.3 0-.7.1-1 .1h-.5c-.6 0-1.2-.1-1.8-.4-.5-.2-.8-.8-.8-1.4 0-.6.3-1.1.8-1.3.6-.3 1.2-.5 1.8-.5.7-.1 1.4-.1 2.1-.1h.6v-.3c0-.4-.2-.7-.5-.9-.4-.2-.8-.3-1.2-.2-1.1 0-2.2.2-3.2.7l.5-1.5c.2.1.3.1.5.1.5 0 1-.1 1.5-.2.3-.1.6-.1.9-.1.7 0 1.3.1 1.9.5.5.4.7 1 .7 1.6v2.7c0 .2.1.3.2.4.1.1.1.2.2.3 0 .1 0 .1.1.2zm-1.7-2v-.7h-.8c-.5 0-1 0-1.5.1-.5 0-.9.1-1.3.3-.4.2-.6.4-.6.7 0 .4.3.7.7.8.4.2.8.2 1.3.2s1.1-.1 1.6-.3c.3-.2.6-.6.6-1.1z"/><path id="Path_63618" class="st0" d="M114.4 22.3l-.4 1.4c-.1-.1-.1-.1-.2-.1s-.2-.1-.3 0h-2.1v2.2c0 .4.1.8.3 1.1.3.3.7.5 1.2.5.3 0 .6-.1.9-.2l.5-.2v1h-.2c-.3 0-.6.1-.9.1h-.6c-.7.1-1.4-.2-1.8-.7-.3-.5-.5-1.1-.5-1.7v-2.2h-1.2l-.2.1-.1.1-.1.1.4-1.3c.1.2.4.2.6.2.2 0 .4 0 .5-.1.2-.2.3-.4.2-.6v-1.4l-.1-.1h1.3l-.1.1v2.1h2.2c.1 0 .3 0 .4-.1l.3-.3z"/><path id="Path_63619" class="st0" d="M122 25.9l-.1-.1h-5.7c.1.5.4 1 .8 1.2.5.3 1.1.4 1.7.4.5 0 1-.1 1.5-.2s1-.3 1.4-.5V28h-.4c-.3 0-.7.1-1 .1-.5.1-1 .2-1.5.2-.9 0-1.8-.2-2.5-.6-.8-.5-1.2-1.3-1.2-2.2 0-.8.3-1.6.8-2.2.7-.6 1.7-.9 2.6-.9 1-.1 2 .3 2.7 1 .5.6.7 1.3.7 2.1.2.1.2.2.2.4zm-1.1-1c0-.5-.3-1-.7-1.3-1-.6-2.2-.6-3.2 0-.5.3-.8.8-.8 1.3h4.7z"/></g></g></g></svg>